<svg width="159" height="44" viewBox="0 0 159 44" fill="none" xmlns="http://www.w3.org/2000/svg">
    <path d="M71.14 23.6954C71.14 25.3554 70.93 26.8654 70.51 28.2254C70.11 29.5654 69.49 30.7254 68.65 31.7054C67.83 32.6854 66.77 33.4354 65.47 33.9554C64.19 34.4754 62.68 34.7354 60.94 34.7354C59.2 34.7354 57.68 34.4754 56.38 33.9554C55.1 33.4154 54.04 32.6654 53.2 31.7054C52.38 30.7254 51.76 29.5554 51.34 28.1954C50.94 26.8354 50.74 25.3254 50.74 23.6654C50.74 21.4454 51.1 19.5154 51.82 17.8754C52.56 16.2354 53.68 14.9654 55.18 14.0654C56.7 13.1454 58.63 12.6854 60.97 12.6854C63.29 12.6854 65.2 13.1454 66.7 14.0654C68.2 14.9654 69.31 16.2454 70.03 17.9054C70.77 19.5454 71.14 21.4754 71.14 23.6954ZM55.51 23.6954C55.51 25.1954 55.7 26.4854 56.08 27.5654C56.46 28.6454 57.05 29.4754 57.85 30.0554C58.65 30.6354 59.68 30.9254 60.94 30.9254C62.24 30.9254 63.28 30.6354 64.06 30.0554C64.86 29.4754 65.44 28.6454 65.8 27.5654C66.18 26.4854 66.37 25.1954 66.37 23.6954C66.37 21.4354 65.95 19.6654 65.11 18.3854C64.27 17.1054 62.89 16.4654 60.97 16.4654C59.69 16.4654 58.65 16.7554 57.85 17.3354C57.05 17.9154 56.46 18.7454 56.08 19.8254C55.7 20.9054 55.51 22.1954 55.51 23.6954ZM101.594 13.0154L96.134 34.4354H90.974L88.064 23.1854C88.004 22.9654 87.924 22.6354 87.824 22.1954C87.744 21.7554 87.644 21.2754 87.524 20.7554C87.424 20.2354 87.334 19.7454 87.254 19.2854C87.174 18.8054 87.114 18.4354 87.074 18.1754C87.054 18.4354 86.994 18.8054 86.894 19.2854C86.814 19.7454 86.724 20.2354 86.624 20.7554C86.524 21.2554 86.424 21.7354 86.324 22.1954C86.224 22.6354 86.144 22.9754 86.084 23.2154L83.204 34.4354H78.044L72.584 13.0154H77.054L79.784 24.7154C79.864 25.0554 79.954 25.4754 80.054 25.9754C80.154 26.4554 80.254 26.9654 80.354 27.5054C80.454 28.0254 80.544 28.5354 80.624 29.0354C80.724 29.5354 80.794 29.9654 80.834 30.3254C80.874 29.9454 80.934 29.5154 81.014 29.0354C81.094 28.5354 81.184 28.0354 81.284 27.5354C81.384 27.0154 81.474 26.5354 81.554 26.0954C81.654 25.6354 81.744 25.2754 81.824 25.0154L84.944 13.0154H89.234L92.354 25.0154C92.414 25.2754 92.494 25.6354 92.594 26.0954C92.694 26.5354 92.794 27.0154 92.894 27.5354C92.994 28.0554 93.084 28.5654 93.164 29.0654C93.244 29.5454 93.304 29.9654 93.344 30.3254C93.404 29.8254 93.494 29.2354 93.614 28.5554C93.734 27.8554 93.864 27.1554 94.004 26.4554C94.164 25.7554 94.294 25.1754 94.394 24.7154L97.124 13.0154H101.594ZM104.288 34.4354V13.0154H108.818V30.6854H117.518V34.4354H104.288Z" fill="#7653FC" />
    <path d="M128.352 32.8354C128.736 32.8354 129.08 32.8114 129.384 32.7634C129.688 32.6994 129.968 32.6274 130.224 32.5474V33.3394C129.968 33.4354 129.68 33.5154 129.36 33.5794C129.04 33.6434 128.68 33.6754 128.28 33.6754C127.544 33.6754 126.952 33.5394 126.504 33.2674C126.056 32.9794 125.72 32.5634 125.496 32.0194C125.288 31.4754 125.184 30.8034 125.184 30.0034V21.5314H123.264V20.9074L125.184 20.6914L125.472 17.6194H126.12V20.7154H130.152V21.5314H126.12V29.9314C126.12 30.8754 126.28 31.5954 126.6 32.0914C126.936 32.5874 127.52 32.8354 128.352 32.8354ZM143.403 27.0754C143.403 28.0354 143.291 28.9154 143.067 29.7154C142.843 30.5154 142.491 31.2114 142.011 31.8034C141.547 32.3954 140.963 32.8594 140.259 33.1954C139.571 33.5154 138.755 33.6754 137.811 33.6754C136.915 33.6754 136.123 33.5154 135.435 33.1954C134.747 32.8754 134.163 32.4194 133.683 31.8274C133.219 31.2354 132.867 30.5394 132.627 29.7394C132.387 28.9394 132.267 28.0514 132.267 27.0754C132.267 25.7154 132.491 24.5474 132.939 23.5714C133.387 22.5794 134.035 21.8194 134.883 21.2914C135.747 20.7474 136.763 20.4754 137.931 20.4754C139.195 20.4754 140.227 20.7634 141.027 21.3394C141.843 21.9154 142.443 22.6994 142.827 23.6914C143.211 24.6834 143.403 25.8114 143.403 27.0754ZM133.227 27.0754C133.227 28.2114 133.395 29.2194 133.731 30.0994C134.067 30.9634 134.571 31.6354 135.243 32.1154C135.931 32.5954 136.787 32.8354 137.811 32.8354C138.883 32.8354 139.755 32.5954 140.427 32.1154C141.115 31.6194 141.619 30.9394 141.939 30.0754C142.275 29.1954 142.443 28.1954 142.443 27.0754C142.443 25.9874 142.291 25.0114 141.987 24.1474C141.683 23.2834 141.203 22.5954 140.547 22.0834C139.891 21.5714 139.019 21.3154 137.931 21.3154C136.395 21.3154 135.227 21.8274 134.427 22.8514C133.627 23.8594 133.227 25.2674 133.227 27.0754ZM152.452 20.4754C154.116 20.4754 155.388 21.0274 156.268 22.1314C157.164 23.2354 157.612 24.8514 157.612 26.9794C157.612 28.4034 157.396 29.6194 156.964 30.6274C156.548 31.6194 155.94 32.3794 155.14 32.9074C154.356 33.4194 153.396 33.6754 152.26 33.6754C151.476 33.6754 150.788 33.5474 150.196 33.2914C149.604 33.0354 149.116 32.6994 148.732 32.2834C148.364 31.8674 148.084 31.4034 147.892 30.8914H147.844C147.876 31.3714 147.892 31.8674 147.892 32.3794C147.892 32.8754 147.892 33.3554 147.892 33.8194V39.0514H146.98V20.7154H147.748L147.844 23.4994H147.892C148.084 22.9714 148.372 22.4834 148.756 22.0354C149.156 21.5714 149.66 21.1954 150.268 20.9074C150.892 20.6194 151.62 20.4754 152.452 20.4754ZM152.38 21.3154C151.388 21.3154 150.564 21.5394 149.908 21.9874C149.252 22.4354 148.756 23.0834 148.42 23.9314C148.084 24.7634 147.908 25.7794 147.892 26.9794V27.1234C147.892 28.4194 148.06 29.4914 148.396 30.3394C148.748 31.1714 149.236 31.7954 149.86 32.2114C150.5 32.6274 151.284 32.8354 152.212 32.8354C153.156 32.8354 153.956 32.6114 154.612 32.1634C155.268 31.7154 155.772 31.0594 156.124 30.1954C156.476 29.3154 156.652 28.2434 156.652 26.9794C156.652 25.0914 156.292 23.6754 155.572 22.7314C154.868 21.7874 153.804 21.3154 152.38 21.3154Z" fill="#7653FC" />
    <path d="M41 1.74391C41 1.0926 40.4622 0.564575 39.7988 0.564575C39.1355 0.564575 38.5977 1.0926 38.5977 1.74391C38.5977 3.02254 37.4609 4.10266 36.1152 4.10266H30.6968C27.6077 2.55891 24.0892 1.74399 20.5 1.74399C16.9108 1.74399 13.3923 2.55891 10.3032 4.10266H4.89942C3.54586 4.10274 2.40234 3.02254 2.40234 1.74391C2.40234 1.0926 1.86454 0.564575 1.20117 0.564575C0.537805 0.564575 0 1.0926 0 1.74391V5.28199C0 7.46997 0.88198 9.53176 2.48386 11.0935C0.856035 13.7063 0 16.569 0 19.4341C0 29.1884 9.19625 37.1241 20.5 37.1241C31.8037 37.1241 41 29.1884 41 19.4341C41 16.5734 40.1464 13.7145 38.523 11.1048C40.0529 9.61086 41 7.55205 41 5.28207V1.74391ZM20.5001 4.10274C22.4136 4.10274 24.3025 4.36093 26.0992 4.86026C24.7576 5.38813 23.5262 6.18253 22.474 7.21712C21.6723 8.00547 21.0131 8.89594 20.5074 9.85812C20.0017 8.89594 19.3425 8.00547 18.5407 7.21712C17.487 6.18096 16.2535 5.38577 14.9094 4.8579C16.7036 4.36015 18.5895 4.10274 20.5001 4.10274ZM20.5 23.682C20.9492 24.4139 21.5108 25.072 22.1611 25.6335L20.5 28.7097L18.8389 25.6335C19.4892 25.072 20.0508 24.4139 20.5 23.682ZM13.293 25.3308C9.98134 25.3308 7.28711 22.6855 7.28711 19.4341C7.28711 16.1827 9.98134 13.5374 13.293 13.5374C16.6046 13.5374 19.2988 16.1827 19.2988 19.4341C19.2988 22.6855 16.6046 25.3308 13.293 25.3308ZM21.7012 19.4341C21.7012 19.3403 21.704 19.2471 21.7084 19.1543C21.7167 19.098 21.7225 19.0407 21.7223 18.9821V18.9596C21.9695 15.9294 24.5582 13.5374 27.707 13.5374C31.0187 13.5374 33.7129 16.1827 33.7129 19.4341C33.7129 22.6855 31.0187 25.3308 27.707 25.3308C24.3954 25.3308 21.7012 22.6855 21.7012 19.4341ZM2.42621 5.80593C3.17278 6.23332 4.0212 6.4614 4.89942 6.4614H10.5791H10.585H10.8906C13.139 6.4614 15.2521 7.32169 16.8407 8.88376C18.1513 10.1725 18.9743 11.8112 19.2204 13.5847C17.8662 12.2618 16.0568 11.3883 14.0459 11.2122C13.956 11.1911 13.8626 11.1787 13.7661 11.1787H8.50286C7.1907 11.1787 5.97455 10.7755 4.97846 10.0916C4.91423 10.0187 4.84104 9.95168 4.7568 9.89421C4.70067 9.85592 4.64205 9.82424 4.58223 9.79648C3.3801 8.81952 2.57227 7.40322 2.42621 5.80593ZM38.5977 19.4341C38.5977 27.8878 30.4791 34.7654 20.5 34.7654C10.5209 34.7654 2.40234 27.8878 2.40234 19.4341C2.40234 17.0745 3.09582 14.7032 4.41687 12.5137C5.36259 13.0225 6.39808 13.3501 7.47769 13.4773C5.88062 14.9808 4.88477 17.0953 4.88477 19.4341C4.88477 23.9861 8.65668 27.6894 13.293 27.6894C14.5513 27.6894 15.7457 27.4161 16.8185 26.9277L19.4387 31.7799C19.6471 32.1656 20.0553 32.4068 20.5 32.4068C20.9447 32.4068 21.3529 32.1656 21.5613 31.7799L24.1815 26.9277C25.2543 27.4161 26.4488 27.6894 27.707 27.6894C32.3433 27.6894 36.1152 23.9861 36.1152 19.4341C36.1152 17.096 35.1199 14.982 33.5237 13.4785C34.6228 13.3509 35.6581 13.0185 36.5878 12.5214C37.9058 14.7088 38.5977 17.0775 38.5977 19.4341ZM36.3987 9.81543C36.3475 9.84051 36.2972 9.86811 36.2489 9.90105C36.1712 9.95404 36.1028 10.0151 36.042 10.0813C35.0456 10.7713 33.8271 11.1787 32.5117 11.1787H27.2484C27.1547 11.1787 27.0639 11.1902 26.9764 11.2102C24.9648 11.381 23.1538 12.2499 21.7964 13.5685C22.0453 11.8012 22.8673 10.1685 24.1739 8.88368C25.7625 7.32161 27.8756 6.46133 30.1239 6.46133H30.3957C30.3984 6.46133 30.401 6.46156 30.4037 6.46156C30.406 6.46156 30.4083 6.46133 30.4106 6.46133H36.1152C36.9885 6.46133 37.8315 6.23544 38.5732 5.81222C38.425 7.41753 37.6096 8.83918 36.3987 9.81543Z" fill="#7653FC" />
    <path d="M13.5 16.6835L14.5103 19.2744H17.7798L15.1347 20.8758L16.145 23.4667L13.5 21.8654L10.855 23.4667L11.8653 20.8758L9.22025 19.2744H12.4897L13.5 16.6835Z" fill="#7653FC" />
    <path d="M27.5 16.6835L28.5103 19.2744H31.7798L29.1347 20.8758L30.145 23.4667L27.5 21.8654L24.855 23.4667L25.8653 20.8758L23.2202 19.2744H26.4897L27.5 16.6835Z" fill="#7653FC" />
</svg>
    